<svg xmlns="http://www.w3.org/2000/svg" version="1.0" width="500.000000pt" height="500.000000pt" viewBox="0 0 500.000000 500.000000" preserveAspectRatio="xMidYMid meet">

<g transform="translate(0.000000,500.000000) scale(0.100000,-0.100000)" fill="#ebe1e1" stroke="none">
<path d="M2097 4768 c-3 -24 -2 -74 3 -113 7 -68 7 -67 9 43 0 61 -1 112 -3 112 -2 0 -6 -19 -9 -42z" fill="#ebe1e1"/>
<path d="M3830 4785 c-6 -8 -22 -17 -33 -21 -57 -18 -75 -41 -87 -117 -18 -110 -77 -181 -215 -258 -33 -18 -83 -50 -110 -71 -28 -20 -73 -47 -100 -59 -28 -12 -63 -34 -80 -49 -16 -15 -45 -33 -62 -40 -18 -7 -49 -28 -69 -47 -45 -42 -151 -96 -261 -133 -46 -15 -89 -34 -96 -42 -7 -9 -29 -21 -49 -28 -38 -12 -239 -31 -248 -23 -2 2 2 16 11 31 12 21 26 29 71 38 81 16 88 20 88 49 0 14 6 34 13 45 10 17 9 22 -3 30 -10 6 -11 10 -2 10 6 0 12 7 12 15 0 9 -9 15 -23 15 -13 0 -28 5 -35 12 -9 9 -16 7 -32 -7 -21 -19 -19 -21 -36 33 -2 8 -13 16 -24 19 -18 5 -60 63 -60 82 0 14 73 19 93 7 9 -6 17 -16 17 -23 0 -7 7 -13 16 -13 12 0 15 6 11 20 -4 17 -1 20 16 18 14 -2 23 3 25 15 2 10 -3 17 -11 17 -8 0 -20 7 -27 15 -14 17 -47 20 -52 4 -6 -19 -40 3 -35 23 3 10 -2 32 -11 48 -13 23 -14 34 -6 48 27 42 -50 81 -161 82 -35 0 -67 -9 -105 -28 -51 -25 -56 -31 -73 -82 -23 -73 -25 -171 -3 -240 13 -41 16 -82 14 -160 l-3 -105 -62 3 -62 4 -3 -33 c-3 -30 -8 -35 -61 -55 -103 -40 -207 -158 -257 -290 -11 -29 -38 -91 -61 -136 -23 -45 -48 -103 -55 -129 -8 -27 -28 -60 -45 -76 -17 -15 -37 -40 -44 -54 -23 -44 -47 -179 -40 -226 9 -65 62 -106 418 -329 20 -13 54 -35 75 -49 21 -14 45 -25 54 -25 19 0 50 36 68 80 23 55 40 38 40 -39 0 -81 24 -217 42 -239 7 -8 28 -21 45 -29 41 -17 58 -56 79 -178 17 -95 30 -124 95 -202 21 -26 39 -52 39 -57 0 -15 92 -239 107 -261 20 -30 16 -105 -9 -145 -11 -19 -27 -55 -34 -80 -7 -25 -30 -85 -50 -135 -34 -81 -38 -99 -37 -175 0 -48 10 -128 23 -185 32 -148 36 -192 17 -213 -30 -33 -49 -93 -42 -131 14 -76 103 -215 131 -204 19 7 72 -52 76 -84 6 -51 103 -91 187 -77 42 7 83 34 64 41 -18 6 -16 30 2 37 8 3 15 12 15 21 0 22 -38 19 -52 -5 -17 -27 -26 -25 -30 8 -2 19 -9 28 -25 30 -16 2 -20 8 -16 20 6 14 4 15 -9 5 -13 -11 -15 -8 -14 22 1 18 5 37 9 41 14 14 7 39 -18 68 -14 16 -25 37 -25 47 0 16 9 18 69 18 81 -1 106 10 115 48 15 73 -10 1327 -34 1647 -10 136 -9 150 7 168 10 11 27 18 42 16 21 -3 28 -15 52 -84 24 -69 49 -226 49 -306 0 -10 4 -17 9 -14 5 3 25 -15 44 -41 19 -27 62 -84 95 -127 33 -43 70 -97 82 -120 35 -68 145 -217 176 -237 16 -10 38 -19 48 -19 17 0 18 2 5 18 -36 43 -47 142 -15 142 8 0 8 2 0 8 -19 12 -44 70 -38 86 8 20 -21 66 -42 66 -14 0 -14 2 0 15 8 8 19 15 23 15 5 0 18 6 28 14 14 10 17 17 9 27 -6 8 -8 25 -3 39 6 23 7 23 8 3 2 -39 12 -55 27 -42 18 15 18 60 -1 85 -13 16 -16 17 -25 4 -8 -13 -10 -13 -10 2 0 9 -9 20 -20 23 -25 8 -45 41 -30 50 16 10 12 22 -10 28 -27 7 -29 67 -2 74 13 3 21 22 30 67 27 142 25 140 162 193 l75 28 7 65 c4 36 9 202 10 370 3 292 2 306 -18 340 -24 41 -85 69 -154 69 -52 1 -131 -36 -265 -124 -44 -29 -118 -73 -165 -99 -47 -26 -92 -51 -100 -56 -53 -34 -114 -61 -127 -56 -15 6 -15 31 2 98 6 24 4 28 -21 34 -32 8 -116 69 -107 78 3 3 15 -1 27 -9 11 -8 33 -15 48 -15 16 0 28 -4 28 -9 0 -5 7 -12 16 -15 15 -6 16 2 10 76 -3 46 -12 119 -19 163 -13 89 -8 85 -97 71 l-46 -8 -42 105 c-59 149 -59 147 39 175 45 13 85 20 89 15 10 -11 38 -110 46 -160 4 -24 12 -43 18 -43 7 0 50 25 97 55 46 30 110 69 143 86 58 30 227 145 349 236 36 26 117 81 181 122 78 49 116 80 116 92 0 10 -6 46 -14 81 -8 35 -17 84 -20 110 -5 45 -4 49 42 99 46 51 122 114 186 154 100 64 112 82 75 129 -17 21 -18 26 -5 26 19 0 20 9 1 33 -7 11 -11 25 -9 32 6 16 -22 85 -34 85 -5 0 -15 -7 -22 -15z m35 -46 c12 -19 -5 -23 -22 -6 -16 16 -16 17 -1 17 9 0 20 -5 23 -11z m-1717 -757 c-2 -26 -7 -47 -13 -47 -12 0 -19 89 -10 114 11 29 26 -14 23 -67z m181 -97 c12 -26 21 -65 21 -92 0 -62 -17 -44 -23 25 -3 29 -10 58 -15 65 -14 19 -22 47 -13 47 5 0 18 -20 30 -45z m-9 -96 c0 -12 -5 -16 -15 -13 -8 4 -15 17 -15 31 0 22 2 24 15 13 8 -7 15 -21 15 -31z m-380 -779 c11 -21 6 -40 -10 -40 -13 0 -32 39 -25 50 10 16 23 12 35 -10z m1270 -366 c0 -39 -5 -60 -15 -68 -25 -19 -41 -118 -27 -171 17 -63 15 -188 -3 -231 -11 -27 -26 -40 -67 -59 -29 -13 -72 -26 -95 -30 -51 -8 -50 -12 -57 170 -3 72 -8 144 -11 161 -6 29 -2 34 80 99 48 38 107 95 132 127 24 32 48 58 54 58 5 0 9 -25 9 -56z m-99 -616 c12 -23 45 -73 74 -112 94 -125 117 -185 99 -253 -4 -13 -14 -23 -23 -23 -22 0 -71 95 -71 135 0 17 -25 82 -55 145 -49 102 -65 150 -50 150 2 0 14 -19 26 -42z m219 -112 c0 -11 -7 -30 -15 -40 -13 -17 -15 -18 -21 -2 -3 9 0 24 7 33 11 13 11 17 1 20 -6 3 -10 9 -7 13 10 16 35 -2 35 -24z m-680 -1596 c0 -11 -4 -20 -10 -20 -5 0 -10 9 -10 20 0 11 5 20 10 20 6 0 10 -9 10 -20z" fill="#ebe1e1"/>
<path d="M2103 4540 c0 -25 2 -35 4 -22 2 12 2 32 0 45 -2 12 -4 2 -4 -23z" fill="#ebe1e1"/>
<path d="M2530 4215 c-31 -38 32 -82 65 -45 15 16 14 18 -12 25 -15 4 -22 10 -15 12 6 3 12 9 12 14 0 14 -36 10 -50 -6z" fill="#ebe1e1"/>
<path d="M2931 1888 c1 -60 4 -75 9 -53 11 45 11 135 0 135 -6 0 -10 -33 -9 -82z" fill="#ebe1e1"/>
<path d="M2505 270 c10 -11 20 -20 22 -20 2 0 -2 9 -9 20 -7 11 -17 20 -22 20 -5 0 -1 -9 9 -20z" fill="#ebe1e1"/>
</g>
</svg>